<?xml version="1.0" encoding="utf-8"?>
<!-- Generator: Adobe Illustrator 22.0.1, SVG Export Plug-In . SVG Version: 6.00 Build 0)  -->
<svg version="1.1" id="Layer_1" xmlns="http://www.w3.org/2000/svg" xmlns:xlink="http://www.w3.org/1999/xlink" x="0px" y="0px"
	 viewBox="0 0 265 53.9" style="enable-background:new 0 0 265 53.9;" xml:space="preserve">
<style type="text/css">
	.st0{enable-background:new    ;}
	.st1{fill:#FF666E;}
	.st2{fill:url(#SVGID_1_);}
	.st3{fill:url(#SVGID_2_);}
	.st4{fill:url(#SVGID_3_);}
</style>
<g class="st0">
	<path class="st1" d="M90.6,21.1c-1.7-1.8-3.3-2.3-4.9-2.3c-4.8,0-8,3.7-8,8.4c0,5,3.2,8.7,8,8.7c1.9,0,3.7-0.9,5.2-2.8l3.4,2.4
		c-2.1,2.9-5.3,4.2-8.7,4.2c-7.2,0-12.3-4.9-12.3-12.2c0-7.5,5.1-12.4,12.3-12.4c3.2,0,5.9,1,8.2,3.7L90.6,21.1z"/>
	<path class="st1" d="M104.7,22.8c4.8,0,8.6,3.3,8.6,8.3c0,5-3.8,8.3-8.6,8.3s-8.6-3.3-8.6-8.3C96.1,26.1,99.9,22.8,104.7,22.8z
		 M104.7,35.8c2.9,0,4.7-2.3,4.7-4.8s-1.7-4.8-4.7-4.8s-4.7,2.3-4.7,4.8S101.8,35.8,104.7,35.8z"/>
	<path class="st1" d="M129.5,36.6L129.5,36.6c-1.2,1.9-3.3,2.8-5.5,2.8c-4.9,0-7.8-3.6-7.8-8.3s3.1-8.3,7.7-8.3c3,0,4.6,1.4,5.4,2.4
		h0.1V14h4v25h-3.8V36.6z M124.8,35.8c2.9,0,4.7-2.3,4.7-4.8s-1.7-4.8-4.7-4.8s-4.7,2.3-4.7,4.8S121.9,35.8,124.8,35.8z"/>
	<path class="st1" d="M139.8,15.4c1.5,0,2.6,1,2.6,2.4c0,1.4-1.1,2.4-2.6,2.4c-1.5,0-2.5-1.1-2.5-2.4
		C137.3,16.5,138.3,15.4,139.8,15.4z M137.8,23.2h4V39h-4V23.2z"/>
	<path class="st1" d="M146.3,23.2h3.8v2.5h0.1c0.7-1.6,2.2-2.9,4.9-2.9c4.3,0,5.8,3,5.8,6.2v10h-4v-8c0-1.7-0.1-4.7-2.9-4.7
		c-2.6,0-3.6,1.9-3.6,4V39h-4V23.2z"/>
	<path class="st1" d="M181.6,23.2v14.4c0,5.7-2.8,9.3-8.9,9.3c-2.9,0-5.6-0.6-7.9-2.6l2.4-3.2c1.6,1.5,3.2,2.3,5.4,2.3
		c3.8,0,5-2.2,5-5.3v-1.2h-0.1c-1.2,1.6-3.2,2.3-5.2,2.3c-4.8,0-7.9-3.6-7.9-8.1c0-4.7,2.9-8.3,7.8-8.3c2.2,0,4.3,0.9,5.4,2.8h0.1
		v-2.4H181.6z M168.5,31c0,2.5,2,4.6,4.7,4.6c2.9,0,4.7-2,4.7-4.7c0-2.7-1.8-4.7-4.7-4.7C170.4,26.3,168.5,28.2,168.5,31z"/>
	<path class="st1" d="M196.2,15.6h4.2v9.3h10.9v-9.3h4.2V39h-4.2V28.7h-10.9V39h-4.2V15.6z"/>
	<path class="st1" d="M234.8,39H231v-2.5h-0.1c-0.7,1.6-2.2,2.9-4.9,2.9c-4.3,0-5.8-3-5.8-6.2v-10h4v8c0,1.7,0.1,4.7,2.9,4.7
		c2.6,0,3.6-1.9,3.6-4v-8.6h4V39z"/>
	<path class="st1" d="M239.2,14h4v11.1h0.1c0.8-1,2.4-2.4,5.4-2.4c4.5,0,7.7,3.6,7.7,8.3s-2.9,8.3-7.8,8.3c-2.2,0-4.3-0.9-5.4-2.8
		H243V39h-3.8V14z M247.7,26.3c-2.9,0-4.7,2.3-4.7,4.8s1.8,4.8,4.7,4.8s4.7-2.3,4.7-4.8S250.6,26.3,247.7,26.3z"/>
</g>
<g transform="translate(138 74)">
	
		<linearGradient id="SVGID_1_" gradientUnits="userSpaceOnUse" x1="-307.0611" y1="329.9543" x2="-306.7831" y2="327.7053" gradientTransform="matrix(48.82 0 0 -18.0314 14874.8955 5868.9932)">
		<stop  offset="0" style="stop-color:#FF0844"/>
		<stop  offset="1" style="stop-color:#FFB199"/>
	</linearGradient>
	<path class="st2" d="M-109.9-73.9c-0.5-0.2-1.1-0.2-1.6,0l-23.6,8.6l24.4,9.3l24.4-9.3L-109.9-73.9z"/>
	
		<linearGradient id="SVGID_2_" gradientUnits="userSpaceOnUse" x1="-304.2847" y1="341.4417" x2="-303.0437" y2="339.9657" gradientTransform="matrix(25.014 0 0 -41.386 7497.9146 14055.5977)">
		<stop  offset="0" style="stop-color:#FF0844"/>
		<stop  offset="1" style="stop-color:#FFB199"/>
	</linearGradient>
	<path class="st3" d="M-108.4-52v31.9l23.5-8.5c0.9-0.3,1.5-1.2,1.5-2.1v-30.7L-108.4-52z"/>
	
		<linearGradient id="SVGID_3_" gradientUnits="userSpaceOnUse" x1="-304.4354" y1="341.7161" x2="-303.0524" y2="339.9311" gradientTransform="matrix(25.01 0 0 -41.384 7467.1099 14054.9023)">
		<stop  offset="0" style="stop-color:#FF0844"/>
		<stop  offset="1" style="stop-color:#FFB199"/>
	</linearGradient>
	<path class="st4" d="M-138-30.8c0,1,0.6,1.8,1.5,2.1l23.5,8.6V-52l-25-9.5V-30.8z"/>
</g>
</svg>
