<svg xmlns="http://www.w3.org/2000/svg" width="128" height="128" viewBox="0 0 128 128">
  <g id="GitWin" transform="translate(0.158 0)">
    <rect id="Rectangle_5" data-name="Rectangle 5" width="128" height="128" transform="translate(-0.158 0)" fill="none"/>
    <g id="Group_9" data-name="Group 9">
      <path id="Path_3" data-name="Path 3" d="M0,0H16V48c4.758-9.3,31.954-7.84,32-16V8H64V32c-.109,16.044-39.866,15.85-48,32V88H0Z" transform="translate(32 24)" fill="#131313"/>
      <circle id="Ellipse_6" data-name="Ellipse 6" cx="16" cy="16" r="16" transform="translate(23.842 8)" fill="#010101"/>
      <circle id="Ellipse_7" data-name="Ellipse 7" cx="16" cy="16" r="16" transform="translate(71.842 16)" fill="#010101"/>
      <circle id="Ellipse_8" data-name="Ellipse 8" cx="16" cy="16" r="16" transform="translate(23.842 88)" fill="#010101"/>
      <circle id="Ellipse_9" data-name="Ellipse 9" cx="8" cy="8" r="8" transform="translate(31.842 96)" fill="#fff"/>
      <circle id="Ellipse_10" data-name="Ellipse 10" cx="8" cy="8" r="8" transform="translate(79.842 24)" fill="#fff"/>
      <circle id="Ellipse_11" data-name="Ellipse 11" cx="8" cy="8" r="8" transform="translate(31.842 16)" fill="#fff"/>
    </g>
  </g>
</svg>
