<svg xmlns="http://www.w3.org/2000/svg" width="128" height="128" viewBox="0 0 128 128">
  <g id="DiscordWin" transform="translate(0 -0.053)">
    <rect id="Rectangle_1" data-name="Rectangle 1" width="128" height="128" transform="translate(0 0.053)" fill="none"/>
    <g id="Group_11" data-name="Group 11">
      <path id="Path_1" data-name="Path 1" d="M8,0,40-8,16,2.584V8S34.38,0,48,0C59.52,0,80,8,80,8V2.584L56-8,88,0l8,56L64,64V56l16-8s-12,8-32,8-32-8-32-8l16,8v8L0,56Z" transform="translate(16 32)"/>
      <ellipse id="Ellipse_1" data-name="Ellipse 1" cx="8" cy="9.5" rx="8" ry="9.5" transform="translate(40 53.053)" fill="#fff"/>
      <ellipse id="Ellipse_2" data-name="Ellipse 2" cx="8" cy="9.5" rx="8" ry="9.5" transform="translate(72 53.053)" fill="#fff"/>
    </g>
  </g>
</svg>
